<svg xmlns="http://www.w3.org/2000/svg" xmlns:xlink="http://www.w3.org/1999/xlink" width="500" zoomAndPan="magnify" viewBox="0 0 375 374.999991" height="500" preserveAspectRatio="xMidYMid meet" version="1.0"><defs><g/><clipPath id="186c387da9"><path d="M 41.347656 170.4375 L 75.847656 170.4375 L 75.847656 204.9375 L 41.347656 204.9375 Z M 41.347656 170.4375 " clip-rule="nonzero"/></clipPath></defs><g fill="#000000" fill-opacity="1"><g transform="translate(94.515394, 219.658074)"><g><path d="M 0.546875 -44.515625 L 0.546875 -55.65625 L 39.65625 -55.65625 L 39.65625 -44.515625 L 26.4375 -44.515625 L 26.4375 0 L 13.765625 0 L 13.765625 -44.515625 Z M 0.546875 -44.515625 "/></g></g></g><g fill="#000000" fill-opacity="1"><g transform="translate(141.463969, 219.658074)"><g><path d="M 1.546875 -27.859375 C 1.546875 -35.910156 4.289062 -42.722656 9.78125 -48.296875 C 15.269531 -53.867188 21.878906 -56.65625 29.609375 -56.65625 C 37.390625 -56.65625 44 -53.878906 49.4375 -48.328125 C 54.882812 -42.773438 57.609375 -35.953125 57.609375 -27.859375 C 57.609375 -19.722656 54.929688 -12.875 49.578125 -7.3125 C 44.222656 -1.757812 37.566406 1.015625 29.609375 1.015625 C 21.472656 1.015625 14.757812 -1.738281 9.46875 -7.25 C 4.1875 -12.757812 1.546875 -19.628906 1.546875 -27.859375 Z M 15.25 -27.859375 C 15.25 -24.929688 15.695312 -22.265625 16.59375 -19.859375 C 17.488281 -17.453125 19.0625 -15.414062 21.3125 -13.75 C 23.5625 -12.09375 26.328125 -11.265625 29.609375 -11.265625 C 34.328125 -11.265625 37.890625 -12.882812 40.296875 -16.125 C 42.703125 -19.363281 43.90625 -23.273438 43.90625 -27.859375 C 43.90625 -32.398438 42.679688 -36.300781 40.234375 -39.5625 C 37.785156 -42.820312 34.242188 -44.453125 29.609375 -44.453125 C 25.023438 -44.453125 21.484375 -42.820312 18.984375 -39.5625 C 16.492188 -36.300781 15.25 -32.398438 15.25 -27.859375 Z M 15.25 -27.859375 "/></g></g></g><g fill="#000000" fill-opacity="1"><g transform="translate(207.367356, 219.658074)"><g><path d="M 4.046875 -55.65625 L 23.953125 -55.65625 C 29.296875 -55.65625 33.65625 -54.222656 37.03125 -51.359375 C 40.40625 -48.503906 42.09375 -44.425781 42.09375 -39.125 C 42.09375 -35.03125 41.066406 -31.597656 39.015625 -28.828125 C 36.972656 -26.066406 34.195312 -24.125 30.6875 -23 L 49.84375 0 L 33.734375 0 L 16.734375 -21.984375 L 16.734375 0 L 4.046875 0 Z M 16.734375 -30.96875 L 18.21875 -30.96875 C 19.382812 -30.96875 20.367188 -30.988281 21.171875 -31.03125 C 21.984375 -31.070312 22.90625 -31.226562 23.9375 -31.5 C 24.976562 -31.769531 25.8125 -32.148438 26.4375 -32.640625 C 27.070312 -33.140625 27.613281 -33.859375 28.0625 -34.796875 C 28.507812 -35.742188 28.734375 -36.890625 28.734375 -38.234375 C 28.734375 -39.585938 28.507812 -40.738281 28.0625 -41.6875 C 27.613281 -42.632812 27.070312 -43.351562 26.4375 -43.84375 C 25.8125 -44.34375 24.976562 -44.722656 23.9375 -44.984375 C 22.90625 -45.253906 21.984375 -45.410156 21.171875 -45.453125 C 20.367188 -45.503906 19.382812 -45.53125 18.21875 -45.53125 L 16.734375 -45.53125 Z M 16.734375 -30.96875 "/></g></g></g><g fill="#000000" fill-opacity="1"><g transform="translate(262.41051, 219.658074)"><g><path d="M 33.65625 -11.46875 C 35.59375 -11.46875 37.46875 -11.757812 39.28125 -12.34375 C 41.101562 -12.925781 42.445312 -13.488281 43.3125 -14.03125 L 44.59375 -14.90625 L 49.984375 -4.109375 C 49.804688 -3.972656 49.554688 -3.789062 49.234375 -3.5625 C 48.921875 -3.34375 48.191406 -2.929688 47.046875 -2.328125 C 45.898438 -1.722656 44.675781 -1.191406 43.375 -0.734375 C 42.070312 -0.285156 40.363281 0.113281 38.25 0.46875 C 36.132812 0.832031 33.953125 1.015625 31.703125 1.015625 C 26.535156 1.015625 21.632812 -0.253906 17 -2.796875 C 12.363281 -5.335938 8.628906 -8.832031 5.796875 -13.28125 C 2.960938 -17.738281 1.546875 -22.550781 1.546875 -27.71875 C 1.546875 -31.632812 2.378906 -35.390625 4.046875 -38.984375 C 5.710938 -42.585938 7.925781 -45.671875 10.6875 -48.234375 C 13.457031 -50.796875 16.6875 -52.835938 20.375 -54.359375 C 24.0625 -55.890625 27.835938 -56.65625 31.703125 -56.65625 C 35.296875 -56.65625 38.609375 -56.226562 41.640625 -55.375 C 44.679688 -54.519531 46.832031 -53.664062 48.09375 -52.8125 L 49.984375 -51.53125 L 44.59375 -40.734375 C 44.269531 -41.003906 43.789062 -41.332031 43.15625 -41.71875 C 42.53125 -42.101562 41.273438 -42.609375 39.390625 -43.234375 C 37.503906 -43.867188 35.59375 -44.1875 33.65625 -44.1875 C 30.601562 -44.1875 27.859375 -43.691406 25.421875 -42.703125 C 22.992188 -41.710938 21.070312 -40.40625 19.65625 -38.78125 C 18.238281 -37.164062 17.160156 -35.425781 16.421875 -33.5625 C 15.679688 -31.695312 15.3125 -29.796875 15.3125 -27.859375 C 15.3125 -23.628906 16.894531 -19.835938 20.0625 -16.484375 C 23.238281 -13.140625 27.769531 -11.46875 33.65625 -11.46875 Z M 33.65625 -11.46875 "/></g></g></g><g fill="#000000" fill-opacity="1"><g transform="translate(319.949489, 219.658074)"><g><path d="M 16.734375 -22.328125 L 16.734375 0 L 4.046875 0 L 4.046875 -55.65625 L 16.734375 -55.65625 L 16.734375 -33.453125 L 34.671875 -33.453125 L 34.671875 -55.65625 L 47.359375 -55.65625 L 47.359375 0 L 34.671875 0 L 34.671875 -22.328125 Z M 16.734375 -22.328125 "/></g></g></g><g fill="#004aad" fill-opacity="1"><g transform="translate(3.55398, 236.488775)"><g><path d="M 67.578125 -26.046875 L 70.015625 -27.8125 C 73.085938 -29.625 75.257812 -30.53125 76.53125 -30.53125 C 79.332031 -30.53125 82.363281 -28 85.625 -22.9375 C 87.613281 -19.769531 88.609375 -17.234375 88.609375 -15.328125 C 88.609375 -13.429688 87.992188 -11.847656 86.765625 -10.578125 C 85.546875 -9.316406 84.125 -8.1875 82.5 -7.1875 C 80.875 -6.195312 79.3125 -5.25 77.8125 -4.34375 C 76.320312 -3.4375 73.269531 -2.257812 68.65625 -0.8125 C 64.039062 0.632812 59.582031 1.359375 55.28125 1.359375 C 50.988281 1.359375 46.648438 0.796875 42.265625 -0.328125 C 37.878906 -1.460938 33.351562 -3.363281 28.6875 -6.03125 C 24.03125 -8.707031 19.847656 -11.96875 16.140625 -15.8125 C 12.429688 -19.65625 9.378906 -24.582031 6.984375 -30.59375 C 4.585938 -36.613281 3.390625 -43.148438 3.390625 -50.203125 C 3.390625 -57.253906 4.566406 -63.648438 6.921875 -69.390625 C 9.273438 -75.140625 12.28125 -79.890625 15.9375 -83.640625 C 19.601562 -87.398438 23.789062 -90.546875 28.5 -93.078125 C 37.363281 -97.960938 46.269531 -100.40625 55.21875 -100.40625 C 59.476562 -100.40625 63.800781 -99.75 68.1875 -98.4375 C 72.570312 -97.125 75.894531 -95.789062 78.15625 -94.4375 L 81.40625 -92.53125 C 83.039062 -91.539062 84.3125 -90.726562 85.21875 -90.09375 C 87.5625 -88.195312 88.734375 -86.050781 88.734375 -83.65625 C 88.734375 -81.257812 87.785156 -78.75 85.890625 -76.125 C 82.359375 -71.238281 79.191406 -68.796875 76.390625 -68.796875 C 74.765625 -68.796875 72.457031 -69.789062 69.46875 -71.78125 C 65.664062 -74.851562 60.601562 -76.390625 54.28125 -76.390625 C 48.394531 -76.390625 42.601562 -74.351562 36.90625 -70.28125 C 34.195312 -68.289062 31.9375 -65.488281 30.125 -61.875 C 28.3125 -58.257812 27.40625 -54.164062 27.40625 -49.59375 C 27.40625 -45.019531 28.3125 -40.925781 30.125 -37.3125 C 31.9375 -33.695312 34.242188 -30.847656 37.046875 -28.765625 C 42.554688 -24.785156 48.300781 -22.796875 54.28125 -22.796875 C 57.082031 -22.796875 59.722656 -23.15625 62.203125 -23.875 C 64.691406 -24.601562 66.484375 -25.328125 67.578125 -26.046875 Z M 67.578125 -26.046875 "/></g></g></g><g clip-path="url(#186c387da9)"><path fill="#004aad" d="M 75.472656 187.5 C 75.472656 188.058594 75.445312 188.617188 75.390625 189.171875 C 75.335938 189.726562 75.253906 190.28125 75.144531 190.828125 C 75.035156 191.375 74.902344 191.917969 74.738281 192.453125 C 74.574219 192.988281 74.386719 193.511719 74.175781 194.03125 C 73.960938 194.546875 73.722656 195.050781 73.457031 195.542969 C 73.195312 196.035156 72.90625 196.515625 72.597656 196.980469 C 72.285156 197.445312 71.953125 197.890625 71.601562 198.324219 C 71.246094 198.757812 70.871094 199.167969 70.476562 199.566406 C 70.082031 199.960938 69.667969 200.335938 69.234375 200.6875 C 68.804688 201.042969 68.355469 201.375 67.890625 201.6875 C 67.425781 201.996094 66.945312 202.285156 66.453125 202.546875 C 65.960938 202.8125 65.457031 203.050781 64.941406 203.261719 C 64.421875 203.476562 63.898438 203.664062 63.363281 203.828125 C 62.828125 203.988281 62.289062 204.125 61.738281 204.234375 C 61.191406 204.34375 60.640625 204.425781 60.082031 204.480469 C 59.527344 204.535156 58.96875 204.5625 58.410156 204.5625 C 57.851562 204.5625 57.292969 204.535156 56.738281 204.480469 C 56.183594 204.425781 55.628906 204.34375 55.082031 204.234375 C 54.535156 204.125 53.992188 203.988281 53.457031 203.828125 C 52.921875 203.664062 52.398438 203.476562 51.882812 203.261719 C 51.363281 203.050781 50.859375 202.8125 50.367188 202.546875 C 49.875 202.285156 49.394531 201.996094 48.929688 201.6875 C 48.464844 201.375 48.019531 201.042969 47.585938 200.6875 C 47.152344 200.335938 46.742188 199.960938 46.34375 199.566406 C 45.949219 199.167969 45.574219 198.757812 45.222656 198.324219 C 44.867188 197.890625 44.535156 197.445312 44.222656 196.980469 C 43.914062 196.515625 43.625 196.035156 43.363281 195.542969 C 43.097656 195.050781 42.859375 194.546875 42.648438 194.03125 C 42.433594 193.511719 42.246094 192.988281 42.082031 192.453125 C 41.921875 191.917969 41.785156 191.375 41.675781 190.828125 C 41.566406 190.28125 41.484375 189.726562 41.429688 189.171875 C 41.375 188.617188 41.347656 188.058594 41.347656 187.5 C 41.347656 186.941406 41.375 186.382812 41.429688 185.828125 C 41.484375 185.269531 41.566406 184.71875 41.675781 184.171875 C 41.785156 183.621094 41.921875 183.082031 42.082031 182.546875 C 42.246094 182.011719 42.433594 181.488281 42.648438 180.96875 C 42.859375 180.453125 43.097656 179.949219 43.363281 179.457031 C 43.625 178.964844 43.914062 178.484375 44.222656 178.019531 C 44.535156 177.554688 44.867188 177.109375 45.222656 176.675781 C 45.574219 176.242188 45.949219 175.828125 46.34375 175.433594 C 46.742188 175.039062 47.152344 174.664062 47.585938 174.308594 C 48.019531 173.957031 48.464844 173.625 48.929688 173.3125 C 49.394531 173.003906 49.875 172.714844 50.367188 172.453125 C 50.859375 172.1875 51.363281 171.949219 51.882812 171.734375 C 52.398438 171.523438 52.921875 171.335938 53.457031 171.171875 C 53.992188 171.011719 54.535156 170.875 55.082031 170.765625 C 55.628906 170.65625 56.183594 170.574219 56.738281 170.519531 C 57.292969 170.464844 57.851562 170.4375 58.410156 170.4375 C 58.96875 170.4375 59.527344 170.464844 60.082031 170.519531 C 60.640625 170.574219 61.191406 170.65625 61.738281 170.765625 C 62.289062 170.875 62.828125 171.011719 63.363281 171.171875 C 63.898438 171.335938 64.421875 171.523438 64.941406 171.734375 C 65.457031 171.949219 65.960938 172.1875 66.453125 172.453125 C 66.945312 172.714844 67.425781 173.003906 67.890625 173.3125 C 68.355469 173.625 68.804688 173.957031 69.234375 174.308594 C 69.667969 174.664062 70.082031 175.039062 70.476562 175.433594 C 70.871094 175.828125 71.246094 176.242188 71.601562 176.675781 C 71.953125 177.109375 72.285156 177.554688 72.597656 178.019531 C 72.90625 178.484375 73.195312 178.964844 73.457031 179.457031 C 73.722656 179.949219 73.960938 180.453125 74.175781 180.96875 C 74.386719 181.488281 74.574219 182.011719 74.738281 182.546875 C 74.902344 183.082031 75.035156 183.621094 75.144531 184.171875 C 75.253906 184.71875 75.335938 185.269531 75.390625 185.828125 C 75.445312 186.382812 75.472656 186.941406 75.472656 187.5 Z M 75.472656 187.5 " fill-opacity="1" fill-rule="nonzero"/></g></svg>